<svg xmlns="http://www.w3.org/2000/svg" viewBox="0 0 410 404">
  <defs>
    <linearGradient id="a" x1="6.857%" x2="93.143%" y1="34.286%" y2="65.714%">
      <stop offset="0%" stop-color="#41d1ff" />
      <stop offset="100%" stop-color="#bd34fe" />
    </linearGradient>
    <linearGradient id="b" x1="6.857%" x2="93.143%" y1="2.857%" y2="97.143%">
      <stop offset="0%" stop-color="#ffea83" />
      <stop offset="8.333%" stop-color="#ffdd35" />
      <stop offset="100%" stop-color="#ffa800" />
    </linearGradient>
  </defs>
  <path
    fill="url(#a)"
    d="M399.641 59.525 215.56 388.237c-5.975 10.727-21.432 10.824-27.546.178L10.44 59.555c-6.586-11.124 1.002-25.05 13.74-25.05h361.322c12.698 0 20.288 13.86 13.757 24.984z"
  />
  <path
    fill="url(#b)"
    d="M292.965.063 156.3 28.436a6.818 6.818 0 0 0-5.356 7.84l27.776 157.102a6.818 6.818 0 0 0 8.98 5.23l46.524-16.795c4.21-1.522 8.773 1.39 8.773 5.84v125.83c0 5.494 5.885 8.962 10.692 6.255l29.032-16.88a6.818 6.818 0 0 0 3.447-5.884l-1.89-81.875a6.818 6.818 0 0 1 1.018-4.042l73.241-114.023c2.95-4.593-.713-10.585-6.18-9.43l-51.35 10.683c-4.385.912-8.44-2.866-7.425-7.253l20.236-87.32A6.818 6.818 0 0 0 292.965.063z"
  />
</svg>
